<svg xmlns="http://www.w3.org/2000/svg" xmlns:xlink="http://www.w3.org/1999/xlink" contentStyleType="text/css" height="587px" preserveAspectRatio="none" style="width:564px;height:587px;background:#0B58A8;" version="1.1" viewBox="0 0 564 587" width="564px" zoomAndPan="magnify"><defs/><g><rect fill="#0B58A8" height="587" style="stroke:none;stroke-width:1.0;" width="564" x="0" y="0"/><rect fill="#0B58A8" height="390.0703" style="stroke:#FFFFFF;stroke-width:1.0;" width="542.6436" x="15" y="99.2969"/><rect fill="#0B58A8" height="186.4688" style="stroke:none;stroke-width:1.0;" width="542.6436" x="15" y="116.4297"/><rect fill="#0B58A8" height="186.4688" style="stroke:none;stroke-width:1.0;" width="542.6436" x="15" y="302.8984"/><line style="stroke:#FFFFFF;stroke-width:1.0;" x1="40" x2="40" y1="82.2969" y2="506.3672"/><line style="stroke:#FFFFFF;stroke-width:1.0;" x1="132.1113" x2="132.1113" y1="82.2969" y2="506.3672"/><line style="stroke:#FFFFFF;stroke-width:1.0;" x1="329.3838" x2="329.3838" y1="82.2969" y2="506.3672"/><line style="stroke:#FFFFFF;stroke-width:1.0;" x1="482.0156" x2="482.0156" y1="82.2969" y2="506.3672"/><text fill="#FFFFFF" font-family="Verdana" font-size="14" lengthAdjust="spacing" textLength="25.9902" x="25" y="78.9951">You</text><ellipse cx="40.9951" cy="14" fill="#0B58A8" rx="8" ry="8" style="stroke:#FFFFFF;stroke-width:1.0;"/><path d="M40.9951,22 L40.9951,49 M27.9951,30 L53.9951,30 M40.9951,49 L27.9951,64 M40.9951,49 L53.9951,64 " fill="none" style="stroke:#FFFFFF;stroke-width:1.0;"/><text fill="#FFFFFF" font-family="Verdana" font-size="14" lengthAdjust="spacing" textLength="25.9902" x="25" y="518.3623">You</text><ellipse cx="40.9951" cy="530.6641" fill="#0B58A8" rx="8" ry="8" style="stroke:#FFFFFF;stroke-width:1.0;"/><path d="M40.9951,538.6641 L40.9951,565.6641 M27.9951,546.6641 L53.9951,546.6641 M40.9951,565.6641 L27.9951,580.6641 M40.9951,565.6641 L53.9951,580.6641 " fill="none" style="stroke:#FFFFFF;stroke-width:1.0;"/><rect fill="#0B58A8" height="30.2969" rx="2.5" ry="2.5" style="stroke:#FFFFFF;stroke-width:1.0;" width="59.4932" x="103.1113" y="51"/><text fill="#FFFFFF" font-family="Verdana" font-size="14" lengthAdjust="spacing" textLength="45.4932" x="110.1113" y="70.9951">GitLab</text><rect fill="#0B58A8" height="30.2969" rx="2.5" ry="2.5" style="stroke:#FFFFFF;stroke-width:1.0;" width="59.4932" x="103.1113" y="505.3672"/><text fill="#FFFFFF" font-family="Verdana" font-size="14" lengthAdjust="spacing" textLength="45.4932" x="110.1113" y="525.3623">GitLab</text><text fill="#FFFFFF" font-family="Verdana" font-size="14" lengthAdjust="spacing" textLength="149.6318" x="252.3838" y="78.9951">Master Branch Cache</text><path d="M312.1997,30 C312.1997,20 330.1997,20 330.1997,20 C330.1997,20 348.1997,20 348.1997,30 L348.1997,56 C348.1997,66 330.1997,66 330.1997,66 C330.1997,66 312.1997,66 312.1997,56 L312.1997,30 " fill="#0B58A8" style="stroke:#FFFFFF;stroke-width:1.5;"/><path d="M312.1997,30 C312.1997,40 330.1997,40 330.1997,40 C330.1997,40 348.1997,40 348.1997,30 " fill="none" style="stroke:#FFFFFF;stroke-width:1.5;"/><text fill="#FFFFFF" font-family="Verdana" font-size="14" lengthAdjust="spacing" textLength="149.6318" x="252.3838" y="518.3623">Master Branch Cache</text><path d="M312.1997,531.6641 C312.1997,521.6641 330.1997,521.6641 330.1997,521.6641 C330.1997,521.6641 348.1997,521.6641 348.1997,531.6641 L348.1997,557.6641 C348.1997,567.6641 330.1997,567.6641 330.1997,567.6641 C330.1997,567.6641 312.1997,567.6641 312.1997,557.6641 L312.1997,531.6641 " fill="#0B58A8" style="stroke:#FFFFFF;stroke-width:1.5;"/><path d="M312.1997,531.6641 C312.1997,541.6641 330.1997,541.6641 330.1997,541.6641 C330.1997,541.6641 348.1997,541.6641 348.1997,531.6641 " fill="none" style="stroke:#FFFFFF;stroke-width:1.5;"/><text fill="#FFFFFF" font-family="Verdana" font-size="14" lengthAdjust="spacing" textLength="123.6279" x="418.0156" y="78.9951">MR Branch Cache</text><path d="M464.8296,30 C464.8296,20 482.8296,20 482.8296,20 C482.8296,20 500.8296,20 500.8296,30 L500.8296,56 C500.8296,66 482.8296,66 482.8296,66 C482.8296,66 464.8296,66 464.8296,56 L464.8296,30 " fill="#0B58A8" style="stroke:#FFFFFF;stroke-width:1.5;"/><path d="M464.8296,30 C464.8296,40 482.8296,40 482.8296,40 C482.8296,40 500.8296,40 500.8296,30 " fill="none" style="stroke:#FFFFFF;stroke-width:1.5;"/><text fill="#FFFFFF" font-family="Verdana" font-size="14" lengthAdjust="spacing" textLength="123.6279" x="418.0156" y="518.3623">MR Branch Cache</text><path d="M464.8296,531.6641 C464.8296,521.6641 482.8296,521.6641 482.8296,521.6641 C482.8296,521.6641 500.8296,521.6641 500.8296,531.6641 L500.8296,557.6641 C500.8296,567.6641 482.8296,567.6641 482.8296,567.6641 C482.8296,567.6641 464.8296,567.6641 464.8296,557.6641 L464.8296,531.6641 " fill="#0B58A8" style="stroke:#FFFFFF;stroke-width:1.5;"/><path d="M464.8296,531.6641 C464.8296,541.6641 482.8296,541.6641 482.8296,541.6641 C482.8296,541.6641 500.8296,541.6641 500.8296,531.6641 " fill="none" style="stroke:#FFFFFF;stroke-width:1.5;"/><path d="M15,99.2969 L143.5161,99.2969 L143.5161,106.4297 L133.5161,116.4297 L15,116.4297 L15,99.2969 " fill="#FFFFFF" style="stroke:#FFFFFF;stroke-width:1.0;"/><rect fill="none" height="390.0703" style="stroke:#FFFFFF;stroke-width:1.0;" width="542.6436" x="15" y="99.2969"/><text fill="#0B58A8" font-family="Verdana" font-size="13" font-weight="bold" lengthAdjust="spacing" textLength="83.5161" x="30" y="112.3638">MR created</text><line style="stroke:#FFFFFF;stroke-width:1.0;stroke-dasharray:2.0,2.0;" x1="15" x2="557.6436" y1="117.4297" y2="117.4297"/><text fill="#FFFFFF" font-family="Verdana" font-size="11" font-weight="bold" lengthAdjust="spacing" textLength="117.1274" x="20" y="127.6401">[First pipeline run]</text><polygon fill="#FFFFFF" points="120.8579,148.3672,130.8579,152.3672,120.8579,156.3672,124.8579,152.3672" style="stroke:#FFFFFF;stroke-width:1.0;"/><line style="stroke:#FFFFFF;stroke-width:1.0;" x1="40.9951" x2="126.8579" y1="152.3672" y2="152.3672"/><text fill="#FFFFFF" font-family="Verdana" font-size="13" lengthAdjust="spacing" textLength="67.8628" x="47.9951" y="147.3013">Create MR</text><polygon fill="#FFFFFF" points="143.8579,177.5,133.8579,181.5,143.8579,185.5,139.8579,181.5" style="stroke:#FFFFFF;stroke-width:1.0;"/><line style="stroke:#FFFFFF;stroke-width:1.0;" x1="137.8579" x2="329.1997" y1="181.5" y2="181.5"/><text fill="#FFFFFF" font-family="Verdana" font-size="13" lengthAdjust="spacing" textLength="173.3418" x="149.8579" y="176.4341">Load master branch cache</text><line style="stroke:#FFFFFF;stroke-width:1.0;" x1="132.8579" x2="174.8579" y1="210.6328" y2="210.6328"/><line style="stroke:#FFFFFF;stroke-width:1.0;" x1="174.8579" x2="174.8579" y1="210.6328" y2="223.6328"/><line style="stroke:#FFFFFF;stroke-width:1.0;" x1="133.8579" x2="174.8579" y1="223.6328" y2="223.6328"/><polygon fill="#FFFFFF" points="143.8579,219.6328,133.8579,223.6328,143.8579,227.6328,139.8579,223.6328" style="stroke:#FFFFFF;stroke-width:1.0;"/><text fill="#FFFFFF" font-family="Verdana" font-size="13" lengthAdjust="spacing" textLength="109.6558" x="139.8579" y="205.5669">Run Gradle Build</text><line style="stroke:#FFFFFF;stroke-width:1.0;" x1="132.8579" x2="174.8579" y1="252.7656" y2="252.7656"/><line style="stroke:#FFFFFF;stroke-width:1.0;" x1="174.8579" x2="174.8579" y1="252.7656" y2="265.7656"/><line style="stroke:#FFFFFF;stroke-width:1.0;" x1="133.8579" x2="174.8579" y1="265.7656" y2="265.7656"/><polygon fill="#FFFFFF" points="143.8579,261.7656,133.8579,265.7656,143.8579,269.7656,139.8579,265.7656" style="stroke:#FFFFFF;stroke-width:1.0;"/><text fill="#FFFFFF" font-family="Verdana" font-size="13" lengthAdjust="spacing" textLength="131.8789" x="139.8579" y="247.6997">Vacuum build cache</text><polygon fill="#FFFFFF" points="470.8296,290.8984,480.8296,294.8984,470.8296,298.8984,474.8296,294.8984" style="stroke:#FFFFFF;stroke-width:1.0;"/><line style="stroke:#FFFFFF;stroke-width:1.0;" x1="132.8579" x2="476.8296" y1="294.8984" y2="294.8984"/><text fill="#FFFFFF" font-family="Verdana" font-size="13" lengthAdjust="spacing" textLength="179.8481" x="139.8579" y="289.8325">Store branch specific cache</text><line style="stroke:#FFFFFF;stroke-width:1.0;stroke-dasharray:2.0,2.0;" x1="15" x2="557.6436" y1="303.8984" y2="303.8984"/><text fill="#FFFFFF" font-family="Verdana" font-size="11" font-weight="bold" lengthAdjust="spacing" textLength="162.5024" x="20" y="314.1089">[Subsequent pipeline run]</text><polygon fill="#FFFFFF" points="143.8579,334.8359,133.8579,338.8359,143.8579,342.8359,139.8579,338.8359" style="stroke:#FFFFFF;stroke-width:1.0;"/><line style="stroke:#FFFFFF;stroke-width:1.0;" x1="137.8579" x2="329.1997" y1="338.8359" y2="338.8359"/><text fill="#FFFFFF" font-family="Verdana" font-size="13" lengthAdjust="spacing" textLength="173.3418" x="149.8579" y="333.77">Load master branch cache</text><polygon fill="#FFFFFF" points="143.8579,363.9688,133.8579,367.9688,143.8579,371.9688,139.8579,367.9688" style="stroke:#FFFFFF;stroke-width:1.0;"/><line style="stroke:#FFFFFF;stroke-width:1.0;" x1="137.8579" x2="481.8296" y1="367.9688" y2="367.9688"/><text fill="#FFFFFF" font-family="Verdana" font-size="13" lengthAdjust="spacing" textLength="176.6172" x="149.8579" y="362.9028">Load branch specific cache</text><line style="stroke:#FFFFFF;stroke-width:1.0;" x1="132.8579" x2="174.8579" y1="397.1016" y2="397.1016"/><line style="stroke:#FFFFFF;stroke-width:1.0;" x1="174.8579" x2="174.8579" y1="397.1016" y2="410.1016"/><line style="stroke:#FFFFFF;stroke-width:1.0;" x1="133.8579" x2="174.8579" y1="410.1016" y2="410.1016"/><polygon fill="#FFFFFF" points="143.8579,406.1016,133.8579,410.1016,143.8579,414.1016,139.8579,410.1016" style="stroke:#FFFFFF;stroke-width:1.0;"/><text fill="#FFFFFF" font-family="Verdana" font-size="13" lengthAdjust="spacing" textLength="109.6558" x="139.8579" y="392.0356">Run Gradle Build</text><line style="stroke:#FFFFFF;stroke-width:1.0;" x1="132.8579" x2="174.8579" y1="439.2344" y2="439.2344"/><line style="stroke:#FFFFFF;stroke-width:1.0;" x1="174.8579" x2="174.8579" y1="439.2344" y2="452.2344"/><line style="stroke:#FFFFFF;stroke-width:1.0;" x1="133.8579" x2="174.8579" y1="452.2344" y2="452.2344"/><polygon fill="#FFFFFF" points="143.8579,448.2344,133.8579,452.2344,143.8579,456.2344,139.8579,452.2344" style="stroke:#FFFFFF;stroke-width:1.0;"/><text fill="#FFFFFF" font-family="Verdana" font-size="13" lengthAdjust="spacing" textLength="131.8789" x="139.8579" y="434.1685">Vacuum build cache</text><polygon fill="#FFFFFF" points="470.8296,477.3672,480.8296,481.3672,470.8296,485.3672,474.8296,481.3672" style="stroke:#FFFFFF;stroke-width:1.0;"/><line style="stroke:#FFFFFF;stroke-width:1.0;" x1="132.8579" x2="476.8296" y1="481.3672" y2="481.3672"/><text fill="#FFFFFF" font-family="Verdana" font-size="13" lengthAdjust="spacing" textLength="179.8481" x="139.8579" y="476.3013">Store branch specific cache</text><!--SRC=[lP2zRiCm38HtFSKrUrwWA3eaGBKuYmCKw4X9R4p0bXNzl7zbsK5Jf4kNJfB8xtX7FUM19mPDSY55DiyH7tC1fULGWM8MAu5yXfRSaLawMZdAP2WnTYTAcICEaRmTS2GxyAunNRlVa_qZTUfNIbtYN49zmaQcp4xnM3Ll4bD6aC2ZU4OiNg75sxz2und71bTPBMkyx6-kjTNDv32juSngQvlLGcxoldZeI6va78gCxhxtJhQK2MQf_rHkcIjphh_5j-afi9LFiHlSyf-BINmjx1-M-4lQIdvxDl9to__QpBil]--></g></svg>