<svg xmlns="http://www.w3.org/2000/svg" xmlns:xlink="http://www.w3.org/1999/xlink" contentStyleType="text/css" height="341px" preserveAspectRatio="none" style="width:300px;height:341px;background:#0B58A8;" version="1.1" viewBox="0 0 300 341" width="300px" zoomAndPan="magnify"><defs/><g><rect fill="#0B58A8" height="341" style="stroke:none;stroke-width:1.0;" width="300" x="0" y="0"/><ellipse cx="137.875" cy="15" fill="#0B58A8" rx="10" ry="10" style="stroke:#FFFFFF;stroke-width:1.0;"/><rect fill="#0B58A8" height="33.9688" rx="12.5" ry="12.5" style="stroke:#FFFFFF;stroke-width:1.0;" width="93.8574" x="90.9463" y="45"/><text fill="#FFFFFF" font-family="Verdana" font-size="12" lengthAdjust="spacing" textLength="73.8574" x="100.9463" y="66.1387">Gradle Build</text><rect fill="#0B58A8" height="33.9688" rx="12.5" ry="12.5" style="stroke:#FFFFFF;stroke-width:1.0;" width="263.75" x="6" y="147.3711"/><text fill="#FFFFFF" font-family="Verdana" font-size="12" lengthAdjust="spacing" textLength="243.75" x="16" y="168.5098">Remove cache keys from master branch</text><polygon fill="#0B58A8" points="36.7937,98.9688,238.9563,98.9688,250.9563,110.9688,238.9563,122.9688,36.7937,122.9688,24.7937,110.9688,36.7937,98.9688" style="stroke:#FFFFFF;stroke-width:1.0;"/><text fill="#FFFFFF" font-family="Verdana" font-size="11" lengthAdjust="spacing" textLength="19.0083" x="141.875" y="133.1792">yes</text><text fill="#FFFFFF" font-family="Verdana" font-size="11" lengthAdjust="spacing" textLength="202.1626" x="36.7937" y="114.7769">has list of master branch cache keys</text><polygon fill="#0B58A8" points="137.875,201.3398,149.875,213.3398,137.875,225.3398,125.875,213.3398,137.875,201.3398" style="stroke:#FFFFFF;stroke-width:1.0;"/><rect fill="#0B58A8" height="47.9375" rx="12.5" ry="12.5" style="stroke:#FFFFFF;stroke-width:1.0;" width="172.373" x="51.6885" y="245.3398"/><text fill="#FFFFFF" font-family="Verdana" font-size="12" lengthAdjust="spacing" textLength="137.9238" x="61.6885" y="266.4785">Remove all cache keys</text><text fill="#FFFFFF" font-family="Verdana" font-size="12" lengthAdjust="spacing" textLength="152.373" x="61.6885" y="280.4473">not used by current Build</text><ellipse cx="137.875" cy="324.2773" fill="none" rx="11" ry="11" style="stroke:#FFFFFF;stroke-width:1.0;"/><ellipse cx="137.875" cy="324.2773" fill="#0B58A8" rx="6" ry="6" style="stroke:#FFFFFF;stroke-width:1.0;"/><line style="stroke:#FFFFFF;stroke-width:1.0;" x1="137.875" x2="137.875" y1="25" y2="45"/><polygon fill="#FFFFFF" points="133.875,35,137.875,45,141.875,35,137.875,39" style="stroke:#FFFFFF;stroke-width:1.0;"/><line style="stroke:#FFFFFF;stroke-width:1.0;" x1="137.875" x2="137.875" y1="122.9688" y2="147.3711"/><polygon fill="#FFFFFF" points="133.875,137.3711,137.875,147.3711,141.875,137.3711,137.875,141.3711" style="stroke:#FFFFFF;stroke-width:1.0;"/><line style="stroke:#FFFFFF;stroke-width:1.0;" x1="250.9563" x2="279.75" y1="110.9688" y2="110.9688"/><polygon fill="#FFFFFF" points="275.75,154.3555,279.75,164.3555,283.75,154.3555,279.75,158.3555" style="stroke:#FFFFFF;stroke-width:1.0;"/><line style="stroke:#FFFFFF;stroke-width:1.0;" x1="279.75" x2="279.75" y1="110.9688" y2="213.3398"/><line style="stroke:#FFFFFF;stroke-width:1.0;" x1="279.75" x2="149.875" y1="213.3398" y2="213.3398"/><polygon fill="#FFFFFF" points="159.875,209.3398,149.875,213.3398,159.875,217.3398,155.875,213.3398" style="stroke:#FFFFFF;stroke-width:1.0;"/><line style="stroke:#FFFFFF;stroke-width:1.0;" x1="137.875" x2="137.875" y1="181.3398" y2="201.3398"/><polygon fill="#FFFFFF" points="133.875,191.3398,137.875,201.3398,141.875,191.3398,137.875,195.3398" style="stroke:#FFFFFF;stroke-width:1.0;"/><line style="stroke:#FFFFFF;stroke-width:1.0;" x1="137.875" x2="137.875" y1="78.9688" y2="98.9688"/><polygon fill="#FFFFFF" points="133.875,88.9688,137.875,98.9688,141.875,88.9688,137.875,92.9688" style="stroke:#FFFFFF;stroke-width:1.0;"/><line style="stroke:#FFFFFF;stroke-width:1.0;" x1="137.875" x2="137.875" y1="225.3398" y2="245.3398"/><polygon fill="#FFFFFF" points="133.875,235.3398,137.875,245.3398,141.875,235.3398,137.875,239.3398" style="stroke:#FFFFFF;stroke-width:1.0;"/><line style="stroke:#FFFFFF;stroke-width:1.0;" x1="137.875" x2="137.875" y1="293.2773" y2="313.2773"/><polygon fill="#FFFFFF" points="133.875,303.2773,137.875,313.2773,141.875,303.2773,137.875,307.2773" style="stroke:#FFFFFF;stroke-width:1.0;"/><!--SRC=[LOux3i9030Lxd-BH9LS87GqzDt1slUoA_I3RGShjeG65UjuypScpD06tScSYSrQdvQeSg-2obHhFL1Acp8PQp34I6fkBObNk8IDmo8A7x3RZyzKnxM8pBJTfuoK7ZAIZ_SjdaXvB-esvrgD0VJWsauXrHzXKfVitodmytm00]--></g></svg>