<svg xmlns="http://www.w3.org/2000/svg" xmlns:xlink="http://www.w3.org/1999/xlink" contentStyleType="text/css" height="313px" preserveAspectRatio="none" style="width:738px;height:313px;background:#0B58A8;" version="1.1" viewBox="0 0 738 313" width="738px" zoomAndPan="magnify"><defs/><g><rect fill="#0B58A8" height="313" style="stroke:none;stroke-width:1.0;" width="738" x="0" y="0"/><rect fill="#0B58A8" height="207.5391" style="stroke:#FFFFFF;stroke-width:1.0;" width="716.3745" x="15" y="53.2969"/><rect fill="#0B58A8" height="59.0703" style="stroke:none;stroke-width:1.0;" width="716.3745" x="15" y="70.4297"/><rect fill="#0B58A8" height="131.3359" style="stroke:none;stroke-width:1.0;" width="716.3745" x="15" y="129.5"/><line style="stroke:#FFFFFF;stroke-width:1.0;" x1="121" x2="121" y1="36.2969" y2="277.8359"/><line style="stroke:#FFFFFF;stroke-width:1.0;" x1="321.3896" x2="321.3896" y1="36.2969" y2="277.8359"/><line style="stroke:#FFFFFF;stroke-width:1.0;" x1="507.5454" x2="507.5454" y1="36.2969" y2="277.8359"/><line style="stroke:#FFFFFF;stroke-width:1.0;" x1="653.1772" x2="653.1772" y1="36.2969" y2="277.8359"/><rect fill="#0B58A8" height="30.2969" rx="2.5" ry="2.5" style="stroke:#FFFFFF;stroke-width:1.0;" width="173.8242" x="35" y="5"/><text fill="#FFFFFF" font-family="Verdana" font-size="14" lengthAdjust="spacing" textLength="159.8242" x="42" y="24.9951">AndroidJarFinderPlugin</text><rect fill="#0B58A8" height="30.2969" rx="2.5" ry="2.5" style="stroke:#FFFFFF;stroke-width:1.0;" width="173.8242" x="35" y="276.8359"/><text fill="#FFFFFF" font-family="Verdana" font-size="14" lengthAdjust="spacing" textLength="159.8242" x="42" y="296.8311">AndroidJarFinderPlugin</text><rect fill="#0B58A8" height="30.2969" rx="2.5" ry="2.5" style="stroke:#FFFFFF;stroke-width:1.0;" width="99.251" x="272.3896" y="5"/><text fill="#FFFFFF" font-family="Verdana" font-size="14" lengthAdjust="spacing" textLength="85.251" x="279.3896" y="24.9951">Root Project</text><rect fill="#0B58A8" height="30.2969" rx="2.5" ry="2.5" style="stroke:#FFFFFF;stroke-width:1.0;" width="99.251" x="272.3896" y="276.8359"/><text fill="#FFFFFF" font-family="Verdana" font-size="14" lengthAdjust="spacing" textLength="85.251" x="279.3896" y="296.8311">Root Project</text><rect fill="#0B58A8" height="30.2969" rx="2.5" ry="2.5" style="stroke:#FFFFFF;stroke-width:1.0;" width="114.6318" x="450.5454" y="5"/><text fill="#FFFFFF" font-family="Verdana" font-size="14" lengthAdjust="spacing" textLength="100.6318" x="457.5454" y="24.9951">Subproject #1</text><rect fill="#0B58A8" height="30.2969" rx="2.5" ry="2.5" style="stroke:#FFFFFF;stroke-width:1.0;" width="114.6318" x="450.5454" y="276.8359"/><text fill="#FFFFFF" font-family="Verdana" font-size="14" lengthAdjust="spacing" textLength="100.6318" x="457.5454" y="296.8311">Subproject #1</text><rect fill="#0B58A8" height="30.2969" rx="2.5" ry="2.5" style="stroke:#FFFFFF;stroke-width:1.0;" width="116.1973" x="595.1772" y="5"/><text fill="#FFFFFF" font-family="Verdana" font-size="14" lengthAdjust="spacing" textLength="102.1973" x="602.1772" y="24.9951">Subproject #N</text><rect fill="#0B58A8" height="30.2969" rx="2.5" ry="2.5" style="stroke:#FFFFFF;stroke-width:1.0;" width="116.1973" x="595.1772" y="276.8359"/><text fill="#FFFFFF" font-family="Verdana" font-size="14" lengthAdjust="spacing" textLength="102.1973" x="602.1772" y="296.8311">Subproject #N</text><path d="M15,53.2969 L160.439,53.2969 L160.439,60.4297 L150.439,70.4297 L15,70.4297 L15,53.2969 " fill="#FFFFFF" style="stroke:#FFFFFF;stroke-width:1.0;"/><rect fill="none" height="207.5391" style="stroke:#FFFFFF;stroke-width:1.0;" width="716.3745" x="15" y="53.2969"/><text fill="#0B58A8" font-family="Verdana" font-size="13" font-weight="bold" lengthAdjust="spacing" textLength="100.439" x="30" y="66.3638">Configuration</text><line style="stroke:#FFFFFF;stroke-width:1.0;stroke-dasharray:2.0,2.0;" x1="15" x2="731.3745" y1="71.4297" y2="71.4297"/><text fill="#FFFFFF" font-family="Verdana" font-size="11" font-weight="bold" lengthAdjust="spacing" textLength="173.8569" x="20" y="81.6401">[Root project configuration]</text><polygon fill="#FFFFFF" points="310.0151,117.5,320.0151,121.5,310.0151,125.5,314.0151,121.5" style="stroke:#FFFFFF;stroke-width:1.0;"/><line style="stroke:#FFFFFF;stroke-width:1.0;" x1="121.9121" x2="316.0151" y1="121.5" y2="121.5"/><text fill="#FFFFFF" font-family="Verdana" font-size="13" lengthAdjust="spacing" textLength="143.9775" x="128.9121" y="101.3013">Find `android.jar` and</text><text fill="#FFFFFF" font-family="Verdana" font-size="13" lengthAdjust="spacing" textLength="176.103" x="128.9121" y="116.4341">write it to `rootProject.ext`</text><line style="stroke:#FFFFFF;stroke-width:1.0;stroke-dasharray:2.0,2.0;" x1="15" x2="731.3745" y1="130.5" y2="130.5"/><text fill="#FFFFFF" font-family="Verdana" font-size="11" font-weight="bold" lengthAdjust="spacing" textLength="171.3594" x="20" y="140.7104">[Subprojects configuration]</text><polygon fill="#FFFFFF" points="333.0151,176.5703,323.0151,180.5703,333.0151,184.5703,329.0151,180.5703" style="stroke:#FFFFFF;stroke-width:1.0;"/><line style="stroke:#FFFFFF;stroke-width:1.0;" x1="327.0151" x2="506.8613" y1="180.5703" y2="180.5703"/><text fill="#FFFFFF" font-family="Verdana" font-size="13" lengthAdjust="spacing" textLength="161.8462" x="339.0151" y="160.3716">Get path to `android.jar`</text><text fill="#FFFFFF" font-family="Verdana" font-size="13" lengthAdjust="spacing" textLength="143.9331" x="339.0151" y="175.5044">from `rootProject.ext`</text><polygon fill="#FFFFFF" points="495.8613,190.5703,505.8613,194.5703,495.8613,198.5703,499.8613,194.5703" style="stroke:#FFFFFF;stroke-width:1.0;"/><line style="stroke:#FFFFFF;stroke-width:1.0;stroke-dasharray:2.0,2.0;" x1="322.0151" x2="501.8613" y1="194.5703" y2="194.5703"/><polygon fill="#FFFFFF" points="333.0151,234.8359,323.0151,238.8359,333.0151,242.8359,329.0151,238.8359" style="stroke:#FFFFFF;stroke-width:1.0;"/><line style="stroke:#FFFFFF;stroke-width:1.0;" x1="327.0151" x2="652.2759" y1="238.8359" y2="238.8359"/><text fill="#FFFFFF" font-family="Verdana" font-size="13" lengthAdjust="spacing" textLength="161.8462" x="339.0151" y="218.6372">Get path to `android.jar`</text><text fill="#FFFFFF" font-family="Verdana" font-size="13" lengthAdjust="spacing" textLength="143.9331" x="339.0151" y="233.77">from `rootProject.ext`</text><polygon fill="#FFFFFF" points="641.2759,248.8359,651.2759,252.8359,641.2759,256.8359,645.2759,252.8359" style="stroke:#FFFFFF;stroke-width:1.0;"/><line style="stroke:#FFFFFF;stroke-width:1.0;stroke-dasharray:2.0,2.0;" x1="322.0151" x2="647.2759" y1="252.8359" y2="252.8359"/><!--SRC=[hO-nRi9W38Jt_obSEeEKbQ5IXTHA6QA8h0nn4nECY1qvZkZZzszIeAdAncZTtUUx9pzGIu0jDnX2X-PSSOVYi7YLsfJh5EsDfIRBJqF3iW3i8PqxjweEkUcHAX_rRJut5CD7Dydmd8oE8hdlo2P75a9ZEdImKTbpCnWwgmGwzGJZnqkWckafB5zY0LZ3TsqeSPgnEgAL48-Td8sTW1rSeRH8-gc-eayl9_wjJly7NoHN_Zl53kY7aVFxpKxsfkq_x1XRndGSNsGFm6I1fFu2]--></g></svg>